PathFileType	4	(X/Y/Z)	C:\Users\WrightLab\Desktop\Jo\P1.2Trial2.trc
DataRate	CameraRate	NumFrames	NumMarkers	Units	OrigDataRate	OrigDataStartFrame	OrigNumFrames
100.00	100.00	       38	19	mm	100.00	734	       838
Frame#	Time	Headset_Front			Headset_Back			Headset_Left			Headset_Right			Left_Shoulder			Right_Shoulder			Sternum			C7			Left Elbow			Right Elbow			Left Wrist			Right Wrist			Left ASIS			Right ASIS			S2			Left Knee			Right Knee			Left Ankle			Right Ankle			
		X1	Y1	Z1	X2	Y2	Z2	X3	Y3	Z3	X4	Y4	Z4	X5	Y5	Z5	X6	Y6	Z6	X7	Y7	Z7	X8	Y8	Z8	X9	Y9	Z9	X10	Y10	Z10	X11	Y11	Z11	X12	Y12	Z12	X13	Y13	Z13	X14	Y14	Z14	X15	Y15	Z15	X16	Y16	Z16	X17	Y17	Z17	X18	Y18	Z18	X19	Y19	Z19	

734	7.330													-818.33490	1219.84705	-1269.69604				-579.94281	1151.25916	-1214.57495	-727.56165	1290.62146	-1049.49377				-481.63602	994.67914	-881.42432				-359.93796	757.44202	-896.69482	-481.39899	836.26599	-1108.10632				-778.25140	895.38214	-990.46576				-423.78775	445.50104	-1159.57434				-559.59052	162.63541	-991.11523	
735	7.340													-813.24640	1220.64612	-1279.04382				-576.02667	1151.49524	-1219.57825	-727.57751	1291.29199	-1057.10950				-482.87750	995.62140	-884.32764				-360.39050	758.29327	-899.05463	-479.57086	837.24353	-1112.14880				-777.29504	895.83923	-996.51617				-420.73303	445.77264	-1165.93542				-553.24768	156.66014	-1009.42914	
736	7.350													-807.92657	1221.25977	-1287.91370				-571.56787	1151.42249	-1225.83142	-724.44891	1290.39758	-1063.63611				-484.61722	995.67206	-887.81976				-359.96985	759.81567	-899.98083	-477.55963	837.33557	-1114.99805				-776.38727	895.63318	-1002.27374				-418.34030	446.37607	-1171.60535				-546.90131	149.28416	-1032.55444	
737	7.360													-802.46265	1221.68433	-1296.55750				-567.78363	1152.04431	-1231.91260	-723.96338	1291.38013	-1071.13171				-485.48672	996.00433	-889.16669				-359.99725	760.15997	-901.55206	-475.55093	837.60876	-1118.25269				-774.87317	895.20245	-1008.13477				-415.62820	447.36514	-1177.60437				-539.11584	142.20023	-1050.11987	
738	7.370													-797.01727	1221.87219	-1304.82617							-723.34302	1292.49463	-1079.05640				-485.53391	997.23108	-893.53857				-360.50122	760.66986	-902.72339	-473.28217	836.74109	-1121.14014				-772.75977	895.87292	-1012.99939				-414.18759	448.42905	-1182.52063				-533.59985	133.11829	-1073.59351	
739	7.380													-791.41132	1222.06921	-1313.16956							-720.91986	1291.68152	-1086.09546				-485.78604	997.09479	-895.80463				-361.46613	759.93524	-903.76941	-474.52588	832.97760	-1127.11401				-771.16357	895.30115	-1017.27405				-412.01508	449.45364	-1187.74170				-524.65027	126.20627	-1092.78699	
740	7.390													-785.87762	1222.04822	-1321.52637							-717.78815	1291.97168	-1092.62720				-486.57166	996.81757	-900.64258				-362.74783	759.45068	-904.56342	-471.35114	833.63849	-1132.02148				-769.96783	895.68646	-1023.10272				-409.83533	450.27298	-1191.87561				-514.92645	119.55773	-1109.89136	
741	7.400																						-715.27856	1291.12537	-1099.00122				-487.63098	995.98541	-908.04083				-363.44199	759.09540	-905.06073	-469.14841	833.28015	-1136.19360				-768.44684	896.22168	-1028.55713				-408.62357	451.17377	-1198.18311				-504.29163	112.49775	-1131.56702	
742	7.410																						-712.59827	1290.06152	-1105.37488				-488.46271	995.55048	-910.32129				-365.03842	758.17584	-906.53693	-467.02545	830.51068	-1137.74573				-766.82013	896.26581	-1033.61841				-407.22006	450.34454	-1202.47070				-496.62463	105.57048	-1149.02075	
743	7.420																						-708.91132	1289.49011	-1111.44507				-487.91895	994.46179	-913.40668				-366.06912	756.62195	-906.88770	-464.35107	830.26160	-1142.56824				-764.86707	895.53229	-1038.52893				-406.47501	449.58630	-1207.47559				-480.96704	100.83957	-1170.99951	
744	7.430																						-705.74323	1289.97913	-1119.43616				-487.62418	993.64935	-916.24139				-367.78009	755.33148	-907.95453	-459.72623	829.87781	-1148.50830				-762.82257	896.21112	-1043.52173				-406.28885	448.42111	-1209.99902				-470.83499	96.35629	-1186.80066	
745	7.440																						-702.74158	1288.61255	-1124.27905				-486.18262	990.18201	-928.02026				-368.63174	754.29279	-908.96777	-457.12088	828.54846	-1151.21008				-759.12927	895.55334	-1049.40540				-404.75644	447.62268	-1219.27307				-459.18341	91.98810	-1204.28772	
746	7.450																						-698.53894	1288.08716	-1131.75427				-483.25964	994.71643	-916.59900				-369.93927	753.00195	-910.23724	-454.52768	826.37543	-1154.55969				-756.64630	895.38373	-1054.65857				-405.31085	443.86774	-1221.15613				-447.45901	88.13030	-1219.21948	
747	7.460																						-694.99811	1287.27319	-1136.62866				-484.30551	991.29449	-927.66284				-371.07675	751.73413	-911.49817	-451.23779	825.98779	-1156.96838				-752.72760	894.70154	-1061.48962				-405.36850	441.23239	-1224.64453				-434.82388	86.61498	-1235.52734	
748	7.470																						-691.26563	1285.86865	-1141.25281				-482.92896	990.61871	-931.65295				-371.40366	750.98956	-911.92102	-449.00150	824.25104	-1160.06482				-749.67535	895.67792	-1066.11914				-405.79675	437.22653	-1226.20032				-425.75647	84.34897	-1246.27649	
749	7.480																						-686.57703	1284.83057	-1147.57031				-480.81268	988.71820	-936.09454				-373.43625	748.40784	-916.53857	-444.07892	823.57068	-1165.18799				-744.54321	894.23608	-1071.97034				-404.21695	433.55923	-1231.16284				-415.28046	83.42427	-1260.46826	
750	7.490																						-682.30884	1283.86548	-1152.16711				-479.14288	988.60016	-941.31683				-374.06653	747.27887	-917.13776	-440.17984	822.32288	-1170.41479				-740.99054	892.81305	-1077.22156				-402.61438	431.13229	-1234.08716				-406.43692	83.53790	-1271.56897	
751	7.500																						-677.62872	1282.45471	-1157.69788				-475.98654	987.74432	-943.72797				-374.09088	746.10590	-919.17462	-435.80682	821.65021	-1175.10461				-736.22345	891.57574	-1084.43372				-400.48883	427.72461	-1237.48779				-397.79761	84.07816	-1281.78857	
752	7.510																						-672.96356	1280.00330	-1161.58911				-473.67557	986.64453	-948.87195				-373.76920	744.80554	-919.84436	-428.80173	821.10321	-1180.46045				-732.25720	889.34747	-1089.55981				-397.16104	425.46335	-1242.57178				-392.40192	86.19349	-1288.62158	
753	7.520																						-668.33905	1279.02148	-1166.29492				-471.63843	984.48541	-952.91833				-373.03558	742.95239	-921.45148	-424.30096	819.80878	-1183.86365				-727.82385	884.80585	-1101.53064				-395.17426	422.75192	-1245.88562				-384.46500	86.14841	-1294.91675	
754	7.530																						-663.14960	1277.55518	-1169.53552				-467.72147	985.82690	-948.09766				-373.08987	742.78247	-922.57593	-421.18579	817.56018	-1188.66333				-722.47809	884.09137	-1103.38647				-391.38437	422.00662	-1252.22192				-376.04865	86.66685	-1302.25623	
755	7.540																						-658.05115	1276.10437	-1173.39771				-461.67230	984.15942	-952.24731				-371.46332	739.87677	-926.93817	-416.41559	816.12103	-1191.61743				-718.56458	881.99396	-1110.27942				-387.45297	420.72867	-1257.44141				-370.59268	88.08858	-1307.83398	
756	7.550																						-652.53522	1273.93311	-1177.34058				-458.71964	982.24902	-956.34387				-370.64758	738.02356	-928.35944	-411.05649	814.28931	-1197.32349				-712.33984	880.00494	-1115.68958				-383.94052	420.19391	-1259.74854				-364.62424	86.66869	-1311.11780	
757	7.560																						-647.14587	1272.47766	-1182.08936				-457.89233	976.93530	-966.86548				-369.91312	734.49426	-932.16827	-406.52197	812.52490	-1202.43896				-708.69159	876.89282	-1122.61072				-378.93210	418.68140	-1267.12683				-359.63687	83.83005	-1314.60474	
758	7.570																						-641.52997	1270.55566	-1185.05359				-452.64664	975.83130	-968.12689				-366.37128	734.76685	-926.34998	-402.04016	810.65399	-1205.64063				-702.32166	875.11401	-1125.12720				-373.54211	416.39426	-1271.18359				-359.50305	80.70853	-1317.49829	
759	7.580																						-635.99963	1268.69238	-1187.06848				-449.36688	973.25861	-972.76691				-363.08322	732.31177	-930.86365	-395.94659	809.06561	-1212.33667				-698.58844	872.24628	-1137.83276				-369.02417	413.31042	-1275.92676				-360.03027	77.43655	-1318.83252	
760	7.590																						-630.06708	1268.14551	-1193.05591				-444.70401	970.66467	-977.28125				-360.25311	729.48865	-933.58917	-390.13474	807.17523	-1217.95142				-691.89642	870.87653	-1139.66760				-364.91278	409.59201	-1280.72034				-358.74689	73.20147	-1324.34778	
761	7.600																						-624.27625	1266.39294	-1194.31323				-440.66888	969.97797	-979.08374				-357.56741	727.87219	-936.07300	-384.91492	805.80554	-1221.51892				-687.92084	870.04041	-1144.26233				-360.84308	405.65616	-1282.66260				-360.62012	70.09138	-1327.41345	
762	7.610																						-618.49927	1265.79089	-1195.63232				-434.80252	968.58905	-981.18689				-353.68735	724.83545	-937.54529	-379.24118	803.91772	-1226.89233				-681.45911	868.97131	-1147.56299				-357.00925	403.62982	-1287.97229				-360.75574	67.19782	-1330.64124	
763	7.620																						-612.70050	1266.28857	-1201.43701				-428.76099	967.34448	-977.27789				-349.72562	722.79834	-939.62494	-373.62442	803.37048	-1232.11243				-677.14282	867.09802	-1152.17566				-352.01727	401.48120	-1294.59192				-360.43640	63.98133	-1330.01257	
764	7.630																						-607.26880	1266.52478	-1203.08569				-421.57288	965.94928	-980.63306				-344.91003	721.15515	-941.72955	-368.85974	802.70703	-1236.22473				-671.36542	868.14978	-1158.94128				-347.89719	401.44678	-1297.38208				-358.21689	64.33817	-1330.85181	
765	7.640																						-602.48254	1266.91052	-1207.79602				-416.38766	965.27094	-984.84686				-340.48145	719.69891	-944.24646	-362.67896	803.13776	-1242.08289				-666.43835	868.48450	-1163.33691				-342.44766	400.99863	-1301.71838				-355.30157	63.53981	-1332.69812	
766	7.650																						-597.53101	1267.34827	-1211.50159				-414.58420	962.83936	-991.06946				-336.54300	719.60950	-947.59094	-355.86569	805.26074	-1251.23938				-662.40302	867.19061	-1175.57654				-337.66165	401.10947	-1304.37244				-354.91794	61.12511	-1330.47131	
767	7.660																						-593.33997	1268.66980	-1215.13708				-410.35971	961.97900	-997.32721				-331.37433	719.52032	-950.76654	-351.65491	806.52582	-1252.73657				-656.66827	869.60199	-1173.86951				-332.58350	402.50809	-1307.58325				-353.75638	61.22482	-1330.56848	
768	7.670																						-588.85291	1268.40784	-1217.35132				-407.96335	959.84998	-1008.31403				-326.68094	719.35699	-954.85175	-345.34180	808.88660	-1257.97156				-652.42499	869.58893	-1186.35974				-328.65216	403.14514	-1309.99976				-350.50385	59.55359	-1331.62891	
769	7.680																						-584.55115	1268.87964	-1221.97290				-403.85132	960.30792	-1012.30585				-321.52451	720.55267	-958.73926	-339.92746	810.43829	-1259.40173				-646.44604	871.77203	-1182.79639				-324.36264	403.19736	-1310.04346				-350.50385	59.55359	-1331.62891	
770	7.690																						-581.34021	1270.19482	-1228.02356				-400.99872	960.05835	-1015.84833				-316.48770	721.80951	-963.49701	-334.91852	812.87769	-1261.67090				-641.80530	871.52258	-1193.03418				-320.31363	404.34198	-1312.28271				-349.86398	59.18992	-1331.44836	
771	7.700																						-577.47876	1269.18335	-1230.01660				-396.80545	960.12274	-1018.90454				-310.85077	722.28284	-967.34894	-329.36887	815.09839	-1264.14001				-634.80396	873.43774	-1193.43530				-315.96609	405.69498	-1313.98535				-350.17349	58.48247	-1330.43762	
